<svg version="1.2" baseProfile="tiny-ps" xmlns="http://www.w3.org/2000/svg" viewBox="0 0 502 435" width="502" height="435">
	<title>Новый проект</title>
	<style>
		tspan { white-space:pre }
		.shp0 { fill-opacity: 0.412;fill: #cccccc;stroke: #f2f2f2;paint-order:stroke fill markers;stroke-opacity:0.55;stroke-width: 6 } 
		.txt1 { font-size: 24px;fill: #000000;font-weight: 400;font-family: "Montserrat", "sans-serif" } 
	</style>
	<path id="форма 1" class="shp0" d="M126.08 158.89L138 159L139 141L132 135L127 128L130 119L146 122L156 123L161 130L172 131L187 134L198 134L209 139L212 140L217 142L220 144L221 146L221 149L220 154L220 157L231 161L234 157L234 139L234 131L232 119L232 107L235 95L243 90L251 81L262 79L267 72L272 61L274 48L273 36L269 30L269 24L274 20L282 20L291 16L299 9L309 12L317 19L325 22L334 15L346 20L357 4L363 0L372 5L377 3L385 9L389 13L399 23L407 31L415 39L423 48L432 58L440 69L456 87L459 92L457 100L450 110L443 106L431 119L421 121L418 126L442 151L456 162L467 175L486 209L490 223L501 257L500 260L487 263L484 266L485 272L489 277L490 285L487 287L451 275L429 272L393 270L388 303L383 307L371 308L358 300L341 289L333 291L313 275L310 279L294 301L272 300L268 350L275 361L281 369L283 382L282 392L281 406L279 419L276 436L246 424L248 395L229 390L222 398L197 390L181 408L154 387L153 371L96 374L84 371L74 377L68 386L49 393L37 367L1 348L10 291L18 237L51 238L40 204L46 188L54 171L71 171L74 166L67 148L80 141L92 156L121 154L126.08 158.89Z" />
	<text id="Романiв" style="transform: matrix(1,0,0,1,194.717,237.489)" >
		<tspan x="0" y="0" class="txt1">Romaniv
</tspan>
	</text>
</svg>